<?xml version="1.0" encoding="UTF-8"?>
<!DOCTYPE svg PUBLIC "-//W3C//DTD SVG 1.1//EN" "http://www.w3.org/Graphics/SVG/1.1/DTD/svg11.dtd">
<!-- Creator: CorelDRAW 2021 (64-Bit) -->
<svg xmlns="http://www.w3.org/2000/svg" xml:space="preserve" width="176.389mm" height="176.389mm" version="1.1" style="shape-rendering:geometricPrecision; text-rendering:geometricPrecision; image-rendering:optimizeQuality; fill-rule:evenodd; clip-rule:evenodd"
viewBox="0 0 17638.88 17638.88"
 xmlns:xlink="http://www.w3.org/1999/xlink"
 xmlns:xodm="http://www.corel.com/coreldraw/odm/2003">
 <defs>
  <style type="text/css">
   <![CDATA[
    .fil1 {fill:#036D03;fill-rule:nonzero}
    .fil0 {fill:#FF5B00;fill-rule:nonzero}
   ]]>
  </style>
 </defs>
<symbol id="Fm0-11-0" viewBox="14730.94 -4661.61 5367.51 3400.78">
 <path class="fil0" d="M16263.05 -2057.76c-49.74,-488.95 -74.79,-733.42 -124.53,-1222.02 -86.43,29.28 -129.47,43.74 -215.9,73.03 -0.7,0.35 -1.06,0.35 -1.76,0.7 -27.52,9.17 -41.28,13.76 -68.79,22.93 -72.32,376.77 -108.66,565.15 -180.98,941.21 -141.46,-305.15 -212.37,-457.2 -353.84,-760.94 -38.45,13.05 -57.85,19.4 -96.3,32.46 -57.86,19.4 -101.6,51.15 -131.59,94.54 -29.99,43.75 -41.98,93.84 -36.34,150.28 42.34,412.75 63.5,619.13 105.84,1032.23 87.13,-28.57 130.52,-43.04 217.66,-71.61 -30.69,-299.86 -46.21,-449.44 -76.9,-748.95 91.36,196.15 136.87,294.22 227.89,490.36 8.47,17.64 17.99,35.28 28.22,52.92 10.23,17.64 22.58,33.16 36.34,47.27 13.76,14.11 29.28,25.75 46.56,34.93 17.29,9.17 36.34,14.81 56.8,16.58 23.64,1.76 53.27,-3.53 88.9,-15.88 35.28,-12.35 66.68,-31.4 94.55,-57.5 -14.11,-4.94 -24.35,-13.76 -30.7,-26.81 -6.35,-12.7 -10.23,-27.87 -11.28,-44.81 -1.06,-16.93 -0.71,-35.27 1.05,-54.32 2.12,-19.41 4.94,-38.81 8.47,-57.86 48.33,-249.41 72.32,-374.3 120.65,-624.06 31.4,306.91 46.92,460.37 78.32,767.29 87.13,-28.93 130.53,-43.39 217.66,-71.97zm614.19 -1562.1c-33.16,-13.05 -61.74,-19.75 -86.08,-19.75 -23.99,-0.36 -45.51,5.64 -63.85,17.99 -18.7,12.35 -35.28,31.04 -50.1,56.09 -15.17,25.05 -29.63,56.8 -43.74,95.25 -35.28,92.78 -52.92,139.35 -88.2,232.13 27.87,7.76 55.74,6 83.26,-4.59 27.87,-10.58 49.74,-29.28 66.32,-56.44 72.67,-128.06 109.36,-192.27 182.39,-320.68zm393.7 1229.79c-37.04,-363.72 -55.39,-545.75 -92.08,-909.47 -85.37,28.93 -127.7,43.04 -212.72,71.62 3.88,38.8 5.64,58.21 9.52,96.66 4.59,43.74 8.12,79.02 11.29,112.18l-32.45 2.83c-0.36,-4.59 -0.71,-9.18 -1.42,-14.12 -3.88,-30.69 -14.46,-58.91 -32.1,-84.31 -17.99,-25.4 -43.74,-44.1 -77.96,-56.09 -33.87,-12.35 -76.91,-10.58 -129.47,4.58 -53.98,15.88 -104.42,43.4 -151.7,82.55 -47.27,39.52 -88.19,86.79 -122.41,141.47 -34.57,55.03 -60.32,116.06 -77.26,183.09 -16.58,67.03 -21.52,135.47 -14.46,205.32 7.76,73.37 25.05,135.46 51.86,185.91 27.16,50.8 60.67,91.02 100.19,120.65 39.86,29.63 83.96,47.63 132.64,54.33 48.33,7.05 97.37,3.17 146.76,-11.29 49.03,-14.46 97.01,-39.86 143.58,-75.85 46.56,-35.98 88.19,-82.55 125.23,-139.34 4.24,39.86 6,59.97 10.23,99.83 85.02,-28.22 127.71,-42.33 212.73,-70.55zm683.68 -363.01c16.58,-45.16 22.58,-93.14 17.64,-143.58 -4.59,-43.39 -15.88,-78.67 -33.51,-105.48 -18,-26.81 -39.52,-47.98 -64.92,-63.86 -25.4,-15.87 -52.56,-27.51 -82.19,-35.27 -29.64,-7.77 -58.21,-13.76 -85.73,-18.35 -27.51,-4.94 -52.21,-9.17 -74.79,-13.05 -22.57,-4.23 -39.51,-10.23 -50.09,-18.7 -13.41,-10.93 -17.99,-26.46 -13.76,-45.51 4.23,-19.05 15.88,-35.27 34.57,-49.03 10.59,-8.12 24.34,-14.82 41.28,-20.11 16.93,-4.94 34.92,-7.06 53.27,-6 18.69,1.06 36.33,5.65 53.27,13.76 16.58,8.47 30.34,22.22 41.27,41.63 30.34,-24.7 50.45,-55.04 61.03,-91.37 10.23,-36.34 9.88,-69.85 -1.76,-100.54 -11.64,-30.7 -35.28,-53.63 -71.26,-68.8 -35.99,-15.16 -86.43,-14.46 -149.23,3.89 -37.04,10.93 -72.67,28.22 -106.54,50.44 -33.86,22.58 -63.5,49.39 -88.19,80.79 -25.05,31.4 -44.1,66.32 -57.15,104.77 -13.05,38.1 -17.64,78.32 -13.05,120.65 3.88,40.93 15.52,74.09 34.57,99.13 18.7,25.05 42.33,45.87 70.55,61.74 27.87,16.23 59.62,28.58 94.9,37.39 35.28,8.82 71.26,16.59 108.3,23.64 38.81,7.41 65.97,19.4 81.14,35.63 15.17,16.23 21.88,33.52 19.76,51.86 -2.12,18.34 -11.29,35.28 -27.87,51.15 -16.23,15.52 -37.4,26.81 -63.5,33.87 -25.75,6.7 -54.33,7.41 -85.73,2.12 -31.75,-5.3 -62.79,-20.82 -93.48,-46.92 -46.22,77.96 -69.5,117.12 -115.71,194.73 34.92,33.16 74.43,55.39 118.18,67.03 44.09,11.29 88.54,13.4 133.35,5.64 45.15,-7.41 88.54,-22.93 130.88,-46.21 41.98,-22.93 79.02,-52.21 111.12,-87.14 32.11,-34.92 56.45,-74.79 73.38,-119.94zm1681.69 -846.32c15.88,-88.19 17.99,-172.15 6.35,-251.53 -11.99,-79.02 -36.69,-151.34 -74.08,-215.54 -37.75,-64.56 -84.67,-117.13 -141.82,-157.7 -57.15,-40.57 -122.76,-65.61 -197.2,-75.84 -74.08,-10.23 -153.81,-0.71 -239.18,28.57 -86.08,29.28 -163.34,73.73 -231.78,133 -68.44,59.27 -125.94,127 -172.51,203.2 -46.21,76.2 -80.43,156.99 -102.3,242.36 -21.87,85.37 -29.99,169.33 -24.7,252.23 5.65,82.91 26.11,160.16 61.74,232.48 35.28,71.97 88.19,132.3 156.63,181.33 51.16,36.34 107.25,60.68 168.63,71.62 61.74,11.28 123.83,11.64 186.97,0.7 63.15,-10.58 125.59,-31.75 187.33,-63.5 61.73,-31.4 118.53,-72.67 171.09,-123.47 13.41,12.7 20.11,18.7 33.52,31.04 104.07,-34.57 155.93,-52.21 260,-87.13 -58.92,-55.04 -88.55,-82.91 -147.47,-137.94 49.75,-87.84 82.91,-175.68 98.78,-263.88zm254.71 -605.72l207.43 1180.4 -5112.81 1763.89 -254.7 -1800.58 4556.48 -1600.2c0,0 179.91,469.9 603.6,456.49z"/>
 <path class="fil0" d="M19428.53 -3723.22c5.29,79.02 -9.88,160.87 -45.51,244.83 -19.76,-20.46 -29.28,-30.7 -49.04,-51.16 -37.75,-38.8 -79.73,-63.5 -125.94,-74.08 -45.86,-10.94 -88.9,-5.64 -128.76,14.82 -15.88,9.17 -32.46,20.81 -49.39,35.27 -17.29,14.47 -32.11,31.4 -44.1,51.51 -11.99,19.76 -20.46,43.04 -25.05,69.85 -4.58,26.46 -3.88,55.74 2.83,87.84 24.34,-28.93 48.68,-45.51 73.73,-49.39 24.69,-4.23 49.03,-1.06 72.67,9.18 23.63,10.58 46.21,25.75 68.08,45.86 21.88,20.46 42.69,39.51 62.45,57.15 -61.74,50.09 -127.36,81.49 -196.85,94.54 -69.5,13.05 -135.12,2.82 -195.44,-26.81 -45.51,-22.93 -82.91,-55.74 -109.72,-99.84 -27.16,-43.74 -44.8,-93.13 -53.97,-147.46 -8.82,-54.33 -8.47,-110.77 0.7,-169.33 9.53,-58.56 27.87,-114.65 55.04,-167.57 27.51,-53.27 63.85,-101.25 109.01,-144.29 45.5,-43.04 99.83,-75.14 162.98,-96.66 76.2,-25.75 145.34,-27.51 206.73,-4.23 61.38,22.93 110.42,62.44 147.1,117.83 36.69,55.74 57.51,123.12 62.45,202.14z"/>
 <path class="fil0" d="M17003.88 -2854.33c4.24,40.92 4.94,83.26 1.77,127.35 -2.82,43.75 -10.94,85.38 -24.34,124.18 -13.41,38.81 -33.52,73.38 -59.62,104.07 -26.11,30.34 -61.03,52.92 -104.78,67.38 -51.5,16.93 -95.6,17.99 -132.64,3.18 -36.69,-14.82 -65.97,-39.52 -86.79,-73.73 -20.81,-34.22 -33.51,-74.44 -37.74,-120.65 -4.24,-46.57 0.7,-92.43 14.11,-137.94 13.4,-45.51 35.63,-87.49 66.67,-124.88 31.05,-37.75 71.62,-64.92 122.06,-81.85 31.4,-10.58 64.56,-16.58 99.49,-17.64 34.92,-1.06 63.15,9.88 84.66,33.87 6.71,-18.7 9.18,-40.57 7.77,-65.26l32.45 -2.83c5.29,51.16 10.23,97.72 16.93,164.75z"/>
</symbol>
 <g id="Capa_x0020_1">
  <metadata id="CorelCorpID_0Corel-Layer"/>
  <path class="fil1" d="M2365.3 11255.49c-171.19,-390.96 -291.4,-954.26 -368.16,-1544.63l-165.73 72.55c-72.84,31.93 -134.19,-36.02 -177.82,-135.49 -66.67,-152.54 -81.59,-367.02 -8.76,-398.91l285.14 -124.78c-54.03,-592.41 -76.57,-1166.95 -80.74,-1591.6l-181.86 71.76c-324.78,142.19 -606.38,328.71 -777.09,624.39 -3.72,9.5 -10.45,12.43 -23.63,18.2 -19.9,8.72 -45.57,4.29 -57.11,-22.24 -106.52,-261.34 -106.62,-766.69 136.13,-952.11 158.6,-124.63 344.93,-222.1 550.5,-312.05 437.34,-191.49 950.13,-336.98 1387.61,-528.42 304.94,-133.54 578.27,-284.74 767.49,-501.82l10.34 -12.48 32.34 1.7c9.56,3.83 21.94,14.03 30.75,33.93 67.56,262.68 118.65,722.11 -100.61,889.03 -118,91.15 -251.44,165.38 -397.17,229.21 -139.21,60.95 -290.81,111.44 -442.4,162.1 -47.46,360.35 -53.73,923.65 -19.55,1524.87l669.42 -293.05c13.19,-5.82 32.24,1.6 44.74,11.99l24.86 20.75 -1.64 32.33c-159.5,267.23 111.9,472.26 -245.97,628.93l-453.56 190.71c-9.49,375.22 77.23,1403.47 303.6,1920.35 63.74,145.77 142.54,253.49 228.26,286.97l24.98 20.7c20.25,46.38 -135.93,122.59 -255.28,174.93 -320.9,132.54 -559.12,-86.71 -739.08,-497.82z"/>
  <path class="fil1" d="M4558.68 11130.51c-189.32,55.23 -333.85,-101.84 -445.24,-356.07 -270.66,-618.53 -341.5,-1834.33 -347.62,-2100.22 1.39,-138.46 128.31,-242.05 272.83,-305.27 185,-81.01 403.41,-100.85 431.32,-37.32l-0.7 14.08c-18.01,682.8 -61.94,1211.78 73.63,1930.7 22.69,-609.07 74.73,-2126.58 678.04,-2432.06l34.77 -15.23c254.24,-111.29 432.41,-3.28 526.04,210.6 187.22,427.74 40.3,1256.51 -398.92,1448.76l-29 12.68c-17.28,7.62 -36.43,-4.57 -44.03,-21.79l1.44 -28.36c76.62,-171.3 73.48,-886.14 -27.67,-1117.39 -22.84,-52 -49.5,-81.64 -80.9,-74.78l-23.13 10.1c-381.5,167.03 -441.71,2342.36 -418.32,2710.82 3.68,39.7 -121.64,115.34 -179.41,140.55l-23.13 10.2z"/>
  <path class="fil1" d="M7051.75 7731.78c-40.49,-92.49 -108.81,-138.41 -183.93,-105.48l-5.73 2.5c-147.86,71.59 -276.68,437.97 -257.76,843 56.96,-11.24 105.87,-25.62 152.14,-45.92 341,-149.25 376.17,-509.22 295.28,-694.1zm-871.07 1676.12c-318.81,-728.23 -194.34,-1891.64 372.06,-2139.52l5.77 -2.58c312.08,-136.58 565.83,-13.48 682.21,252.49 60.8,138.66 88.55,312.35 64.38,508.92 -41.1,362.5 -293.7,603.86 -495.94,692.41 -75.23,32.95 -146.28,43.34 -187.87,27.16 17.31,212.81 58.95,449.33 140,634.31 103.73,237.01 268.18,392.29 520.31,323.24 37.22,-9.35 66.07,-21.99 100.81,-37.16 381.41,-167.02 462.3,-643.3 473.4,-1026.95 -1.79,-19.9 7.17,-30.7 18.7,-35.72 17.46,-7.66 45.57,-6.08 55.78,16.91l-0.65 14.13c43.48,587.14 -41.1,1023.52 -613.36,1273.96 -554.83,242.96 -933.2,-39.19 -1135.6,-501.6z"/>
  <path class="fil1" d="M7898.33 8910.89c-80.89,-184.98 -66.27,-418.77 81.19,-648.48l18.07 -21.73c17.36,-7.62 42.24,2.19 52.34,25.31 167.81,367.33 451.86,890.43 920.07,685.5 184.99,-80.99 220.56,-282.64 132.01,-484.74l-43.6 -84.24c-271.83,-432.14 -1150.37,-378.06 -1373.12,-886.83 -32.89,-75.13 -48.4,-157.77 -51.74,-259.67 -5.18,-452.34 395.14,-655.14 736.14,-804.5 231.2,-101.14 585.29,-173.34 771.96,-14.23 35.23,32.89 64.44,68.32 82.15,108.81 78.5,179.11 -10.74,431.75 -123.34,646.45 -3.33,8.15 -6.66,16.57 -18.16,21.59 -17.27,7.66 -39.71,3.68 -49.91,-19.61l-2.53 -5.62c-149.26,-341.1 -441.21,-599.02 -735.95,-470.02l-23.23 10.21c-188.22,89.3 -240.06,222.34 -189.46,337.97 25.37,57.75 76.13,111.05 161.81,149.45 479.95,230.76 1132.31,289.51 1344.86,775 27.91,63.63 52.49,135.53 59.7,215.03 64.03,460.96 -184.53,790.22 -600.51,972.37 -572.27,250.45 -1007.05,75.73 -1148.75,-248.02z"/>
  <path class="fil1" d="M9723.53 7857.05l-15.17 -34.64c-249.85,-586.34 -260.26,-1821.55 398.72,-2109.96 358.46,-156.87 579.57,-60.95 665.49,135.67 83.59,190.65 37.71,479.52 -123.69,708.49l-14.82 13.38c-17.36,7.6 -33.99,0.99 -41.49,-16.27 -5.08,-11.6 -7.67,-17.36 -4.43,-25.77 53.83,-223.25 39.95,-396.14 -2.99,-494.5 -30.35,-69.26 -76.27,-111.3 -124.28,-110.85l-51.35 8.66c-289.01,126.52 -370.4,1277.94 -107.31,1879.12 111.39,254.33 281.6,407.11 524.79,348.91l109.01 -34.03c381.6,-167.02 434.13,-644.66 451.16,-1030.83 -1.79,-19.9 7.16,-30.74 18.66,-35.78 17.36,-7.6 39.85,-3.62 47.35,13.64l1.89 19.9c39.07,561.62 -6.31,1008.39 -567.07,1253.83 -525.99,230.24 -931.67,42.88 -1164.47,-488.97z"/>
  <path class="fil1" d="M12544.15 5678.73c-80.9,-184.99 -187.97,-303.34 -311.1,-270.26l-37.18 9.41c-352.73,154.37 -356.08,1216.65 -130.89,1730.99 86.01,196.53 207.07,315.88 359.21,269.91l23.28 -10.05c352.51,-154.38 319.27,-1221.38 96.68,-1730zm-23.84 1959.7c-551.56,234.5 -925.29,-84.02 -1113.26,-497.67l-20.15 -46.27c-75.93,-173.34 -127.97,-371.01 -151.95,-567.07 -82.88,-645.76 91.6,-1348.76 582.86,-1563.85l34.72 -15.17c439.27,-192.28 758.63,81.21 948.39,514.55 321.5,734.25 262.84,1937.62 -274.74,2172.94l-5.87 2.54z"/>
  <path class="fil1" d="M14654.71 11736.62c-253.29,370.62 -495.68,721.07 -732.95,1074.96 -71.06,105.98 -140.46,43.83 -210.66,11.59 -811.92,-373.34 -1656.77,-643.75 -2536,-802.65 -2121.51,-383.49 -4180.13,-168.87 -6168.9,668.37 -166.87,70.25 -267.11,67.02 -365.19,-100.69 -152.08,-260.22 -326.22,-507.59 -507.77,-786.15 1397.01,-821.67 2875.96,-1291.94 4462.38,-1418.89 2139.36,-171.31 4142.61,280.26 6059.09,1353.46z"/>
  <path class="fil1" d="M13596.61 13174.44c-377.13,398.11 -784.8,722.91 -1243.93,978.94 -61.88,34.48 -169.95,10.94 -248.45,-12.74 -1539.71,-464.54 -3105.67,-585.04 -4696.62,-355.58 -354.99,51.2 -707.23,126.72 -1056.6,208.76 -136.72,32.09 -240.11,19.3 -346.18,-70.21 -321,-270.89 -646.04,-536.92 -1005.89,-835.05 1315,-569.96 2627.13,-854.55 3996.14,-881.06 1601.99,-31.04 3129.48,290.61 4601.53,966.94z"/>
  <path class="fil0" d="M10465.58 10057.26c563.85,-859.98 1239.49,-1606.37 2027.87,-2251.27 585.15,-478.67 1218.89,-881.61 1893.14,-1223.61 132.25,-67.07 203.5,-57.71 260.91,82.94 99.9,244.88 214.58,483.89 308.96,730.76 16.61,43.48 -18.26,140.89 -59.05,167.13 -1106.21,711.36 -2053.64,1590.04 -2831.23,2651.67 -28.41,38.75 -98.51,76.27 -142.64,69.85 -480.76,-69.75 -960.23,-148.42 -1457.96,-227.47z"/>
  <path class="fil0" d="M12400.11 10385.64c536.19,-824.36 1996.58,-2174.35 2704.76,-2498.43 116.77,420.36 166.78,846.54 168.16,1278.89 0.1,40.25 -31.73,88.51 -62.28,119.9 -494.24,507.73 -990.63,1013.37 -1507.31,1540.65 -394.99,-133.69 -842.66,-285.14 -1303.33,-441.01z"/>
  <path class="fil1" d="M6677.41 14311.83c1707.96,-396.88 3403.54,-352.85 5086.72,136.02 -1715.77,754.56 -3411.24,703.71 -5086.72,-136.02z"/>
  <path class="fil0" d="M14844.79 11389.67c-254.77,-130.35 -497.32,-254.49 -774.6,-396.34 386.13,-424.04 759.29,-833.75 1132.38,-1243.52l-357.78 1639.86z"/>
  <path class="fil1" d="M3218.13 12337.95c1287.31,2151.37 3609.31,3475.89 6128.65,3475.89 3936.23,0 7138.62,-3202.39 7138.62,-7138.69 0,-2523.6 -1353.98,-4885.01 -3533.45,-6162.72l26.53 69.36c59.25,155.03 9.51,330.55 -122.3,431.46 1948.02,1210.59 3151.05,3364.23 3151.05,5661.9 0,3672.56 -2987.81,6660.51 -6660.45,6660.51 -2367.2,0 -4547.75,-1253.47 -5743.71,-3285.98l-384.94 288.27z"/>
  <path class="fil0" d="M3537.74 5417.92c1175.26,-2090.7 3414.53,-3417.11 5833.71,-3417.11 504.99,0 1008.08,56.52 1495.37,167.82l-101.9 -512.31c-456.63,-89.95 -924.4,-135.48 -1393.47,-135.48 -2767.86,0 -5316.04,1620 -6491.55,4127.19l657.84 -230.11z"/>
  <path class="fil1" d="M11211.63 1442.68c0,0 97.86,237.97 169.56,555.5 71.68,317.46 178.91,705.44 903.06,826.58 0,0 65.72,94.28 58.5,237.12 -1.39,27.92 23.94,50.95 50.96,43.69 28.2,-7.52 57.26,-28.76 60.59,-83.59 0,0 -5.82,-395.08 -753.11,-1242.73 0,0 474.79,348.63 706.1,895.06 0,0 430.16,-681.07 -550.91,-1092.57 0,0 -388.87,-157.56 -644.75,-139.06z"/>
  <g id="_2375863107024">
   <path class="fil0" d="M6963.6 5996.12c-70.16,-689.57 -105.47,-1034.36 -175.62,-1723.43 -121.91,41.29 -182.6,61.69 -304.49,102.98 -1,0.49 -1.49,0.49 -2.5,1 -38.81,12.93 -58.2,19.39 -97.01,32.34 -101.99,531.35 -153.25,797.04 -255.24,1327.4 -199.5,-430.37 -299.51,-644.79 -499.01,-1073.16 -54.23,18.4 -81.6,27.36 -135.83,45.76 -81.6,27.36 -143.29,72.14 -185.58,133.35 -42.28,61.69 -59.21,132.33 -51.24,211.94 59.7,582.11 89.56,873.15 149.26,1455.77 122.89,-40.31 184.08,-60.7 306.98,-101.01 -43.3,-422.89 -65.19,-633.85 -108.47,-1056.24 128.86,276.62 193.04,414.93 321.4,691.56 11.94,24.88 25.38,49.74 39.81,74.62 14.43,24.88 31.83,46.77 51.24,66.68 19.4,19.9 41.29,36.32 65.68,49.25 24.38,12.93 51.25,20.9 80.1,23.38 33.33,2.5 75.13,-4.98 125.38,-22.38 49.74,-17.42 94.02,-44.28 133.33,-81.11 -19.9,-6.96 -34.33,-19.39 -43.28,-37.81 -8.96,-17.91 -14.43,-39.3 -15.93,-63.18 -1.49,-23.87 -1,-49.75 1.5,-76.62 2.99,-27.36 6.97,-54.72 11.94,-81.59 68.17,-351.76 101.98,-527.88 170.16,-880.13 44.27,432.85 66.16,649.28 110.44,1082.12 122.9,-40.79 184.09,-61.2 306.98,-101.49zm866.19 -2203.05c-46.77,-18.42 -87.06,-27.87 -121.4,-27.87 -33.82,-0.49 -64.17,7.97 -90.05,25.37 -26.37,17.42 -49.75,43.79 -70.64,79.12 -21.39,35.32 -41.8,80.09 -61.7,134.34 -49.74,130.84 -74.62,196.51 -124.38,327.36 39.31,10.94 78.61,8.46 117.41,-6.46 39.31,-14.94 70.16,-41.3 93.55,-79.61 102.49,-180.61 154.23,-271.15 257.21,-452.25zm555.24 1734.38c-52.24,-512.95 -78.1,-769.68 -129.85,-1282.63 -120.39,40.8 -180.11,60.7 -300.01,100.99 5.47,54.74 7.97,82.1 13.44,136.33 6.46,61.7 11.44,111.45 15.92,158.22l-45.78 3.98c-0.49,-6.48 -0.99,-12.94 -1.99,-19.9 -5.47,-43.29 -20.39,-83.09 -45.27,-118.91 -25.37,-35.82 -61.7,-62.19 -109.96,-79.12 -47.75,-17.4 -108.45,-14.92 -182.59,6.48 -76.12,22.38 -147.27,61.19 -213.93,116.42 -66.67,55.72 -124.39,122.39 -172.64,199.5 -48.77,77.63 -85.08,163.7 -108.96,258.23 -23.38,94.52 -30.35,191.04 -20.41,289.55 10.95,103.49 35.33,191.06 73.14,262.21 38.32,71.64 85.58,128.35 141.3,170.15 56.21,41.79 118.41,67.16 187.06,76.61 68.18,9.96 137.33,4.49 206.98,-15.92 69.16,-20.4 136.82,-56.22 202.49,-106.96 65.68,-50.76 124.39,-116.42 176.63,-196.53 5.97,56.22 8.45,84.58 14.43,140.81 119.9,-39.82 180.1,-59.71 300,-99.51zm964.22 -511.96c23.38,-63.68 31.83,-131.34 24.86,-202.49 -6.46,-61.2 -22.38,-110.95 -47.26,-148.76 -25.37,-37.82 -55.72,-67.67 -91.54,-90.05 -35.82,-22.4 -74.13,-38.82 -115.93,-49.76 -41.79,-10.94 -82.09,-19.4 -120.89,-25.86 -38.81,-6.97 -73.63,-12.95 -105.48,-18.42 -31.84,-5.97 -55.72,-14.43 -70.65,-26.36 -18.9,-15.43 -25.38,-37.32 -19.4,-64.19 5.97,-26.86 22.39,-49.75 48.76,-69.16 14.92,-11.43 34.33,-20.88 58.2,-28.36 23.89,-6.97 49.26,-9.94 75.13,-8.45 26.37,1.48 51.25,7.96 75.13,19.4 23.38,11.94 42.79,31.35 58.21,58.71 42.79,-34.82 71.14,-77.61 86.08,-128.86 14.42,-51.24 13.93,-98.51 -2.5,-141.8 -16.42,-43.28 -49.74,-75.62 -100.5,-97.01 -50.74,-21.4 -121.89,-20.39 -210.45,5.47 -52.23,15.43 -102.48,39.8 -150.25,71.15 -47.77,31.85 -89.56,69.66 -124.39,113.93 -35.31,44.28 -62.18,93.54 -80.6,147.77 -18.4,53.73 -24.86,110.45 -18.4,170.15 5.47,57.71 21.88,104.48 48.75,139.81 26.37,35.33 59.71,64.67 99.51,87.07 39.31,22.88 84.08,40.29 133.84,52.73 49.74,12.44 100.5,23.38 152.74,33.34 54.72,10.44 93.04,27.36 114.43,50.25 21.39,22.88 30.84,47.26 27.85,73.13 -2.97,25.88 -15.92,49.75 -39.3,72.15 -22.88,21.89 -52.73,37.81 -89.56,47.75 -36.31,9.46 -76.6,10.45 -120.89,2.99 -44.78,-7.46 -88.57,-29.35 -131.85,-66.17 -65.17,109.96 -98,165.17 -163.19,274.63 49.27,46.78 104.99,78.12 166.67,94.53 62.2,15.92 124.89,18.91 188.07,7.97 63.69,-10.45 124.88,-32.34 184.58,-65.18 59.21,-32.34 111.46,-73.64 156.73,-122.88 45.27,-49.27 79.6,-105.48 103.49,-169.17zm2371.71 -1193.56c22.38,-124.39 25.37,-242.8 8.96,-354.74 -16.93,-111.44 -51.75,-213.44 -104.49,-303.99 -53.23,-91.05 -119.4,-165.18 -200,-222.4 -80.6,-57.21 -173.15,-92.54 -278.13,-106.97 -104.48,-14.43 -216.92,-0.99 -337.32,40.31 -121.4,41.29 -230.34,103.98 -326.87,187.56 -96.52,83.58 -177.63,179.11 -243.29,286.57 -65.18,107.47 -113.45,221.41 -144.29,341.81 -30.84,120.39 -42.28,238.82 -34.82,355.73 7.95,116.92 36.81,225.88 87.06,327.87 49.75,101.5 124.39,186.57 220.91,255.73 72.14,51.24 151.24,85.57 237.82,101 87.06,15.92 174.63,16.41 263.69,1 89.05,-14.94 177.12,-44.78 264.18,-89.56 87.07,-44.28 167.18,-102.5 241.3,-174.14 18.92,17.91 28.36,26.37 47.26,43.79 146.77,-48.76 219.91,-73.63 366.68,-122.9 -83.08,-77.61 -124.88,-116.91 -207.96,-194.52 70.15,-123.9 116.91,-247.78 139.31,-372.15zm359.21 -854.26l292.55 1664.72 -7210.67 2487.64 -359.22 -2539.38 6426.07 -2256.79c0,0 253.75,662.71 851.27,643.81z"/>
   <path class="fil0" d="M11427.91 3647.29c7.46,111.45 -13.93,226.87 -64.18,345.28 -27.86,-28.85 -41.3,-43.28 -69.15,-72.13 -53.24,-54.74 -112.44,-89.56 -177.62,-104.48 -64.69,-15.43 -125.37,-7.97 -181.6,20.89 -22.38,12.93 -45.77,29.36 -69.66,49.75 -24.37,20.4 -45.27,44.29 -62.18,72.65 -16.92,27.85 -28.87,60.68 -35.33,98.51 -6.47,37.3 -5.47,78.59 3.98,123.88 34.33,-40.8 68.66,-64.18 103.98,-69.66 34.84,-5.98 69.17,-1.49 102.49,12.94 33.34,14.92 65.19,36.31 96.03,64.67 30.84,28.86 60.21,55.73 88.06,80.6 -87.07,70.66 -179.6,114.93 -277.62,133.35 -98.02,18.4 -190.55,3.98 -275.63,-37.83 -64.19,-32.33 -116.92,-78.59 -154.73,-140.79 -38.32,-61.7 -63.18,-131.34 -76.13,-207.96 -12.44,-76.62 -11.93,-156.22 1,-238.82 13.43,-82.59 39.31,-161.7 77.61,-236.33 38.82,-75.11 90.05,-142.78 153.74,-203.48 64.19,-60.7 140.81,-105.97 229.86,-136.32 107.46,-36.33 204.98,-38.81 291.55,-5.98 86.56,32.34 155.73,88.07 207.47,166.18 51.75,78.61 81.09,173.63 88.06,285.08z"/>
   <path class="fil0" d="M8008.41 4872.71c5.96,57.71 6.96,117.41 2.48,179.6 -3.98,61.69 -15.42,120.4 -34.33,175.13 -18.9,54.72 -47.26,103.48 -84.08,146.78 -36.81,42.77 -86.07,74.62 -147.76,95.02 -72.64,23.88 -134.84,25.37 -187.08,4.47 -51.74,-20.9 -93.04,-55.72 -122.38,-103.98 -29.35,-48.26 -47.26,-104.98 -53.24,-170.15 -5.97,-65.68 1,-130.36 19.9,-194.54 18.91,-64.17 50.25,-123.38 94.04,-176.12 43.77,-53.24 100.99,-91.55 172.14,-115.42 44.28,-14.94 91.05,-23.39 140.3,-24.88 49.26,-1.5 89.06,13.93 119.41,47.75 9.45,-26.36 12.93,-57.21 10.94,-92.03l45.78 -3.98c7.46,72.14 14.43,137.81 23.88,232.35z"/>
  </g>
 </g>
</svg>
